<?xml version="1.0" encoding="utf-8"?>
<!-- Svg Vector Icons : http://www.onlinewebfonts.com/icon -->
<!DOCTYPE svg PUBLIC "-//W3C//DTD SVG 1.1//EN" "http://www.w3.org/Graphics/SVG/1.1/DTD/svg11.dtd">
<svg version="1.1" xmlns="http://www.w3.org/2000/svg" xmlns:xlink="http://www.w3.org/1999/xlink" x="0px" y="0px" viewBox="0 0 256 256" enable-background="new 0 0 256 256" xml:space="preserve">
<metadata> Svg Vector Icons : http://www.onlinewebfonts.com/icon </metadata>
<g><g><path fill="#000000" d="M51.9,163.8c0,0,53.9-75,121.2-56.1v44.1l69-51.7c6-5.3,4.6-8.5-1.4-14l-66.7-57.6v46.3C174.1,74.8,72.2,65.4,51.9,163.8L51.9,163.8z M181.8,192.9v8.8c0,4.7-3.8,8.5-8.5,8.5h-0.1H35.8h-0.1c-4.7,0-8.5-3.8-8.5-8.5v-0.1V98.2v-0.1c0-4.7,3.8-8.5,8.5-8.5h0.1h29.4C73,81.5,81.5,76,88.9,72.3H37.5C22.3,72.3,10,84.7,10,99.8V200c0,15.2,12.3,27.5,27.5,27.5h134.3c15.1,0,27.4-12.3,27.4-27.4v-49.2l-17.2,17.2L181.8,192.9L181.8,192.9z"/></g></g>
</svg>